<mxfile host="app.diagrams.net" modified="2023-04-18T06:26:06.818Z" agent="Mozilla/5.0 (Windows NT 10.0; Win64; x64) AppleWebKit/537.36 (KHTML, like Gecko) Chrome/112.0.0.0 Safari/537.36" etag="lsMrt35nQRzS3MJXTVrC" version="21.1.8" type="github">
  <diagram id="C5RBs43oDa-KdzZeNtuy" name="Page-1">
    <mxGraphModel dx="712" dy="764" grid="1" gridSize="10" guides="1" tooltips="1" connect="1" arrows="1" fold="1" page="1" pageScale="1" pageWidth="827" pageHeight="1169" math="0" shadow="0">
      <root>
        <mxCell id="WIyWlLk6GJQsqaUBKTNV-0" />
        <mxCell id="WIyWlLk6GJQsqaUBKTNV-1" parent="WIyWlLk6GJQsqaUBKTNV-0" />
        <mxCell id="5be6WnkokCuqDbM2Qebd-19" style="edgeStyle=orthogonalEdgeStyle;rounded=0;orthogonalLoop=1;jettySize=auto;html=1;entryX=0.55;entryY=0;entryDx=0;entryDy=0;entryPerimeter=0;endArrow=none;endFill=0;startArrow=diamond;startFill=0;exitX=0.5;exitY=1;exitDx=0;exitDy=0;" edge="1" parent="WIyWlLk6GJQsqaUBKTNV-1" source="5be6WnkokCuqDbM2Qebd-0" target="5be6WnkokCuqDbM2Qebd-2">
          <mxGeometry relative="1" as="geometry">
            <mxPoint x="127" y="200" as="sourcePoint" />
          </mxGeometry>
        </mxCell>
        <mxCell id="5be6WnkokCuqDbM2Qebd-0" value="State" style="swimlane;whiteSpace=wrap;html=1;fillColor=#fff2cc;strokeColor=#d6b656;" vertex="1" parent="WIyWlLk6GJQsqaUBKTNV-1">
          <mxGeometry x="60" y="70" width="140" height="90" as="geometry" />
        </mxCell>
        <mxCell id="5be6WnkokCuqDbM2Qebd-6" value="Name" style="text;html=1;align=center;verticalAlign=middle;resizable=0;points=[];autosize=1;strokeColor=none;fillColor=none;" vertex="1" parent="5be6WnkokCuqDbM2Qebd-0">
          <mxGeometry x="35" y="28" width="60" height="30" as="geometry" />
        </mxCell>
        <mxCell id="5be6WnkokCuqDbM2Qebd-16" style="edgeStyle=orthogonalEdgeStyle;rounded=0;orthogonalLoop=1;jettySize=auto;html=1;exitX=0;exitY=0.5;exitDx=0;exitDy=0;entryX=1;entryY=0.5;entryDx=0;entryDy=0;endArrow=none;endFill=0;startArrow=diamondThin;startFill=0;" edge="1" parent="WIyWlLk6GJQsqaUBKTNV-1" source="5be6WnkokCuqDbM2Qebd-1" target="5be6WnkokCuqDbM2Qebd-0">
          <mxGeometry relative="1" as="geometry" />
        </mxCell>
        <mxCell id="5be6WnkokCuqDbM2Qebd-1" value="Region" style="swimlane;whiteSpace=wrap;html=1;fillColor=#fff2cc;strokeColor=#d6b656;" vertex="1" parent="WIyWlLk6GJQsqaUBKTNV-1">
          <mxGeometry x="335" y="65" width="130" height="100" as="geometry" />
        </mxCell>
        <mxCell id="5be6WnkokCuqDbM2Qebd-7" value="Name" style="text;html=1;align=center;verticalAlign=middle;resizable=0;points=[];autosize=1;strokeColor=none;fillColor=none;" vertex="1" parent="5be6WnkokCuqDbM2Qebd-1">
          <mxGeometry x="30" y="33" width="60" height="30" as="geometry" />
        </mxCell>
        <mxCell id="5be6WnkokCuqDbM2Qebd-26" style="edgeStyle=orthogonalEdgeStyle;rounded=0;orthogonalLoop=1;jettySize=auto;html=1;exitX=0.5;exitY=1;exitDx=0;exitDy=0;entryX=0.5;entryY=0;entryDx=0;entryDy=0;endArrow=none;endFill=0;" edge="1" parent="WIyWlLk6GJQsqaUBKTNV-1" source="5be6WnkokCuqDbM2Qebd-2" target="5be6WnkokCuqDbM2Qebd-24">
          <mxGeometry relative="1" as="geometry" />
        </mxCell>
        <mxCell id="5be6WnkokCuqDbM2Qebd-2" value="City" style="swimlane;whiteSpace=wrap;html=1;fillColor=#fff2cc;strokeColor=#d6b656;startSize=23;" vertex="1" parent="WIyWlLk6GJQsqaUBKTNV-1">
          <mxGeometry x="55" y="270" width="130" height="90" as="geometry" />
        </mxCell>
        <mxCell id="5be6WnkokCuqDbM2Qebd-8" value="Name" style="text;html=1;align=center;verticalAlign=middle;resizable=0;points=[];autosize=1;strokeColor=none;fillColor=none;" vertex="1" parent="5be6WnkokCuqDbM2Qebd-2">
          <mxGeometry x="35" y="40" width="60" height="30" as="geometry" />
        </mxCell>
        <mxCell id="5be6WnkokCuqDbM2Qebd-44" style="edgeStyle=orthogonalEdgeStyle;rounded=0;orthogonalLoop=1;jettySize=auto;html=1;exitX=0.5;exitY=1;exitDx=0;exitDy=0;entryX=0.5;entryY=0;entryDx=0;entryDy=0;endArrow=none;endFill=0;" edge="1" parent="WIyWlLk6GJQsqaUBKTNV-1" source="5be6WnkokCuqDbM2Qebd-4" target="5be6WnkokCuqDbM2Qebd-39">
          <mxGeometry relative="1" as="geometry" />
        </mxCell>
        <mxCell id="5be6WnkokCuqDbM2Qebd-4" value="Bill" style="swimlane;whiteSpace=wrap;html=1;fillColor=#fff2cc;strokeColor=#d6b656;startSize=23;" vertex="1" parent="WIyWlLk6GJQsqaUBKTNV-1">
          <mxGeometry x="344" y="222" width="126" height="128" as="geometry" />
        </mxCell>
        <mxCell id="5be6WnkokCuqDbM2Qebd-10" value="Name" style="text;html=1;align=center;verticalAlign=middle;resizable=0;points=[];autosize=1;strokeColor=none;fillColor=none;" vertex="1" parent="5be6WnkokCuqDbM2Qebd-4">
          <mxGeometry x="35" y="38" width="60" height="30" as="geometry" />
        </mxCell>
        <mxCell id="5be6WnkokCuqDbM2Qebd-11" value="Vote Date" style="text;html=1;align=center;verticalAlign=middle;resizable=0;points=[];autosize=1;strokeColor=none;fillColor=none;" vertex="1" parent="5be6WnkokCuqDbM2Qebd-4">
          <mxGeometry x="25" y="60" width="80" height="30" as="geometry" />
        </mxCell>
        <mxCell id="5be6WnkokCuqDbM2Qebd-12" value="Status" style="text;html=1;align=center;verticalAlign=middle;resizable=0;points=[];autosize=1;strokeColor=none;fillColor=none;" vertex="1" parent="5be6WnkokCuqDbM2Qebd-4">
          <mxGeometry x="35" y="88" width="60" height="30" as="geometry" />
        </mxCell>
        <mxCell id="5be6WnkokCuqDbM2Qebd-33" style="edgeStyle=orthogonalEdgeStyle;rounded=0;orthogonalLoop=1;jettySize=auto;html=1;exitX=0;exitY=0.5;exitDx=0;exitDy=0;entryX=0.5;entryY=1;entryDx=0;entryDy=0;endArrow=none;endFill=0;startArrow=diamondThin;startFill=0;" edge="1" parent="WIyWlLk6GJQsqaUBKTNV-1" source="5be6WnkokCuqDbM2Qebd-5" target="5be6WnkokCuqDbM2Qebd-3">
          <mxGeometry relative="1" as="geometry" />
        </mxCell>
        <mxCell id="5be6WnkokCuqDbM2Qebd-5" value="Political Party" style="swimlane;whiteSpace=wrap;html=1;fillColor=#fff2cc;strokeColor=#d6b656;startSize=23;" vertex="1" parent="WIyWlLk6GJQsqaUBKTNV-1">
          <mxGeometry x="310" y="730" width="140" height="130" as="geometry" />
        </mxCell>
        <mxCell id="5be6WnkokCuqDbM2Qebd-13" value="Name" style="text;html=1;align=center;verticalAlign=middle;resizable=0;points=[];autosize=1;strokeColor=none;fillColor=none;" vertex="1" parent="5be6WnkokCuqDbM2Qebd-5">
          <mxGeometry x="30" y="32" width="60" height="30" as="geometry" />
        </mxCell>
        <mxCell id="5be6WnkokCuqDbM2Qebd-17" value="1..*" style="text;html=1;align=center;verticalAlign=middle;resizable=0;points=[];autosize=1;strokeColor=none;fillColor=none;" vertex="1" parent="WIyWlLk6GJQsqaUBKTNV-1">
          <mxGeometry x="200" y="108" width="40" height="30" as="geometry" />
        </mxCell>
        <mxCell id="5be6WnkokCuqDbM2Qebd-18" value="1" style="text;html=1;align=center;verticalAlign=middle;resizable=0;points=[];autosize=1;strokeColor=none;fillColor=none;" vertex="1" parent="WIyWlLk6GJQsqaUBKTNV-1">
          <mxGeometry x="290" y="108" width="30" height="30" as="geometry" />
        </mxCell>
        <mxCell id="5be6WnkokCuqDbM2Qebd-21" value="1" style="text;html=1;align=center;verticalAlign=middle;resizable=0;points=[];autosize=1;strokeColor=none;fillColor=none;" vertex="1" parent="WIyWlLk6GJQsqaUBKTNV-1">
          <mxGeometry x="135" y="168" width="30" height="30" as="geometry" />
        </mxCell>
        <mxCell id="5be6WnkokCuqDbM2Qebd-22" value="1...*" style="text;html=1;align=center;verticalAlign=middle;resizable=0;points=[];autosize=1;strokeColor=none;fillColor=none;" vertex="1" parent="WIyWlLk6GJQsqaUBKTNV-1">
          <mxGeometry x="120" y="238" width="40" height="30" as="geometry" />
        </mxCell>
        <mxCell id="5be6WnkokCuqDbM2Qebd-24" value="Election" style="swimlane;whiteSpace=wrap;html=1;fillColor=#fff2cc;strokeColor=#d6b656;" vertex="1" parent="WIyWlLk6GJQsqaUBKTNV-1">
          <mxGeometry x="60" y="420" width="120" height="85" as="geometry" />
        </mxCell>
        <mxCell id="5be6WnkokCuqDbM2Qebd-25" value="StartDate" style="text;html=1;align=center;verticalAlign=middle;resizable=0;points=[];autosize=1;strokeColor=none;fillColor=none;" vertex="1" parent="5be6WnkokCuqDbM2Qebd-24">
          <mxGeometry x="20" y="30" width="70" height="30" as="geometry" />
        </mxCell>
        <mxCell id="5be6WnkokCuqDbM2Qebd-27" style="edgeStyle=orthogonalEdgeStyle;rounded=0;orthogonalLoop=1;jettySize=auto;html=1;exitX=0.5;exitY=0;exitDx=0;exitDy=0;endArrow=none;endFill=0;startArrow=none;startFill=0;" edge="1" parent="WIyWlLk6GJQsqaUBKTNV-1" source="5be6WnkokCuqDbM2Qebd-3">
          <mxGeometry relative="1" as="geometry">
            <mxPoint x="110" y="510" as="targetPoint" />
          </mxGeometry>
        </mxCell>
        <mxCell id="5be6WnkokCuqDbM2Qebd-41" style="edgeStyle=orthogonalEdgeStyle;rounded=0;orthogonalLoop=1;jettySize=auto;html=1;exitX=1;exitY=0.5;exitDx=0;exitDy=0;entryX=0;entryY=0.5;entryDx=0;entryDy=0;endArrow=none;endFill=0;" edge="1" parent="WIyWlLk6GJQsqaUBKTNV-1" source="5be6WnkokCuqDbM2Qebd-3" target="5be6WnkokCuqDbM2Qebd-4">
          <mxGeometry relative="1" as="geometry" />
        </mxCell>
        <mxCell id="5be6WnkokCuqDbM2Qebd-47" style="edgeStyle=orthogonalEdgeStyle;rounded=0;orthogonalLoop=1;jettySize=auto;html=1;exitX=1;exitY=0.75;exitDx=0;exitDy=0;entryX=0.5;entryY=1;entryDx=0;entryDy=0;endArrow=none;endFill=0;" edge="1" parent="WIyWlLk6GJQsqaUBKTNV-1" source="5be6WnkokCuqDbM2Qebd-3" target="5be6WnkokCuqDbM2Qebd-39">
          <mxGeometry relative="1" as="geometry" />
        </mxCell>
        <mxCell id="5be6WnkokCuqDbM2Qebd-3" value="Congressman" style="swimlane;whiteSpace=wrap;html=1;fillColor=#fff2cc;strokeColor=#d6b656;startSize=23;" vertex="1" parent="WIyWlLk6GJQsqaUBKTNV-1">
          <mxGeometry x="40" y="570" width="140" height="130" as="geometry" />
        </mxCell>
        <mxCell id="5be6WnkokCuqDbM2Qebd-14" value="Website" style="text;html=1;align=center;verticalAlign=middle;resizable=0;points=[];autosize=1;strokeColor=none;fillColor=none;" vertex="1" parent="5be6WnkokCuqDbM2Qebd-3">
          <mxGeometry x="30" y="58" width="70" height="30" as="geometry" />
        </mxCell>
        <mxCell id="5be6WnkokCuqDbM2Qebd-9" value="Name" style="text;html=1;align=center;verticalAlign=middle;resizable=0;points=[];autosize=1;strokeColor=none;fillColor=none;" vertex="1" parent="5be6WnkokCuqDbM2Qebd-3">
          <mxGeometry x="35" y="28" width="60" height="30" as="geometry" />
        </mxCell>
        <mxCell id="5be6WnkokCuqDbM2Qebd-28" value="0..*" style="text;html=1;align=center;verticalAlign=middle;resizable=0;points=[];autosize=1;strokeColor=none;fillColor=none;" vertex="1" parent="WIyWlLk6GJQsqaUBKTNV-1">
          <mxGeometry x="75" y="390" width="40" height="30" as="geometry" />
        </mxCell>
        <mxCell id="5be6WnkokCuqDbM2Qebd-30" value="1" style="text;html=1;align=center;verticalAlign=middle;resizable=0;points=[];autosize=1;strokeColor=none;fillColor=none;" vertex="1" parent="WIyWlLk6GJQsqaUBKTNV-1">
          <mxGeometry x="135" y="360" width="30" height="30" as="geometry" />
        </mxCell>
        <mxCell id="5be6WnkokCuqDbM2Qebd-31" value="1..*" style="text;html=1;align=center;verticalAlign=middle;resizable=0;points=[];autosize=1;strokeColor=none;fillColor=none;" vertex="1" parent="WIyWlLk6GJQsqaUBKTNV-1">
          <mxGeometry x="130" y="508" width="40" height="30" as="geometry" />
        </mxCell>
        <mxCell id="5be6WnkokCuqDbM2Qebd-32" value="1" style="text;html=1;align=center;verticalAlign=middle;resizable=0;points=[];autosize=1;strokeColor=none;fillColor=none;" vertex="1" parent="WIyWlLk6GJQsqaUBKTNV-1">
          <mxGeometry x="75" y="540" width="30" height="30" as="geometry" />
        </mxCell>
        <mxCell id="5be6WnkokCuqDbM2Qebd-34" value="0..*" style="text;html=1;align=center;verticalAlign=middle;resizable=0;points=[];autosize=1;strokeColor=none;fillColor=none;" vertex="1" parent="WIyWlLk6GJQsqaUBKTNV-1">
          <mxGeometry x="130" y="718" width="40" height="30" as="geometry" />
        </mxCell>
        <mxCell id="5be6WnkokCuqDbM2Qebd-35" value="1" style="text;html=1;align=center;verticalAlign=middle;resizable=0;points=[];autosize=1;strokeColor=none;fillColor=none;" vertex="1" parent="WIyWlLk6GJQsqaUBKTNV-1">
          <mxGeometry x="260" y="760" width="30" height="30" as="geometry" />
        </mxCell>
        <mxCell id="5be6WnkokCuqDbM2Qebd-39" value="Vote" style="swimlane;whiteSpace=wrap;html=1;fillColor=#fff2cc;strokeColor=#d6b656;" vertex="1" parent="WIyWlLk6GJQsqaUBKTNV-1">
          <mxGeometry x="350" y="560" width="120" height="85" as="geometry" />
        </mxCell>
        <mxCell id="5be6WnkokCuqDbM2Qebd-40" value="Vote Choice" style="text;html=1;align=center;verticalAlign=middle;resizable=0;points=[];autosize=1;strokeColor=none;fillColor=none;" vertex="1" parent="5be6WnkokCuqDbM2Qebd-39">
          <mxGeometry x="10" y="30" width="90" height="30" as="geometry" />
        </mxCell>
        <mxCell id="5be6WnkokCuqDbM2Qebd-42" value="1" style="text;html=1;align=center;verticalAlign=middle;resizable=0;points=[];autosize=1;strokeColor=none;fillColor=none;" vertex="1" parent="WIyWlLk6GJQsqaUBKTNV-1">
          <mxGeometry x="215" y="588" width="30" height="30" as="geometry" />
        </mxCell>
        <mxCell id="5be6WnkokCuqDbM2Qebd-43" value="0..*" style="text;html=1;align=center;verticalAlign=middle;resizable=0;points=[];autosize=1;strokeColor=none;fillColor=none;" vertex="1" parent="WIyWlLk6GJQsqaUBKTNV-1">
          <mxGeometry x="300" y="248" width="40" height="30" as="geometry" />
        </mxCell>
        <mxCell id="5be6WnkokCuqDbM2Qebd-45" value="1" style="text;html=1;align=center;verticalAlign=middle;resizable=0;points=[];autosize=1;strokeColor=none;fillColor=none;" vertex="1" parent="WIyWlLk6GJQsqaUBKTNV-1">
          <mxGeometry x="415" y="358" width="30" height="30" as="geometry" />
        </mxCell>
        <mxCell id="5be6WnkokCuqDbM2Qebd-46" value="0..*" style="text;html=1;align=center;verticalAlign=middle;resizable=0;points=[];autosize=1;strokeColor=none;fillColor=none;" vertex="1" parent="WIyWlLk6GJQsqaUBKTNV-1">
          <mxGeometry x="410" y="528" width="40" height="30" as="geometry" />
        </mxCell>
        <mxCell id="5be6WnkokCuqDbM2Qebd-48" value="1..*" style="text;html=1;align=center;verticalAlign=middle;resizable=0;points=[];autosize=1;strokeColor=none;fillColor=none;" vertex="1" parent="WIyWlLk6GJQsqaUBKTNV-1">
          <mxGeometry x="300" y="638" width="40" height="30" as="geometry" />
        </mxCell>
        <mxCell id="5be6WnkokCuqDbM2Qebd-49" value="1" style="text;html=1;align=center;verticalAlign=middle;resizable=0;points=[];autosize=1;strokeColor=none;fillColor=none;" vertex="1" parent="WIyWlLk6GJQsqaUBKTNV-1">
          <mxGeometry x="195" y="638" width="30" height="30" as="geometry" />
        </mxCell>
      </root>
    </mxGraphModel>
  </diagram>
</mxfile>
